<?xml version="1.0" standalone="no"?>
<!DOCTYPE svg PUBLIC "-//W3C//DTD SVG 20010904//EN"
 "http://www.w3.org/TR/2001/REC-SVG-20010904/DTD/svg10.dtd">
<svg version="1.0" xmlns="http://www.w3.org/2000/svg"
 width="1030.000000pt" height="325.000000pt" viewBox="0 0 1030.000000 325.000000"
 preserveAspectRatio="xMidYMid meet">

<g transform="translate(0.000000,325.000000) scale(0.100000,-0.100000)"
fill="#000000" stroke="none">
<path d="M6735 3200 c-132 -42 -601 -187 -652 -202 l-33 -9 0 -219 0 -220
-185 0 -185 0 0 -395 0 -395 184 0 184 0 5 -477 c5 -522 9 -561 68 -738 81
-241 231 -386 468 -449 150 -40 259 -50 505 -42 122 3 238 9 259 12 l37 6 0
369 0 369 -132 0 c-220 0 -317 32 -358 116 -19 38 -20 62 -20 437 l0 397 255
0 255 0 0 395 0 395 -255 0 -255 0 0 345 c0 270 -3 345 -12 344 -7 0 -67 -18
-133 -39z"/>
<path d="M1455 3024 c-416 -64 -705 -203 -970 -469 -231 -230 -376 -499 -446
-827 -26 -120 -36 -379 -20 -503 17 -127 51 -265 66 -271 7 -3 154 38 327 92
172 53 319 97 327 98 9 1 27 -33 50 -94 219 -575 724 -964 1351 -1040 351 -42
753 58 1067 267 480 319 758 893 712 1465 -9 112 -39 280 -59 334 l-9 22 -143
-45 c-420 -131 -1401 -425 -1555 -466 l-93 -25 0 703 0 703 -22 6 c-121 35
-215 47 -378 51 -96 2 -188 1 -205 -1z"/>
<path d="M8615 2609 c-247 -31 -468 -147 -652 -342 -184 -195 -296 -430 -338
-707 -19 -122 -19 -378 0 -500 54 -358 247 -681 518 -868 242 -167 564 -229
862 -167 158 33 292 102 402 208 l62 59 3 -108 3 -109 413 -3 412 -2 0 1240 0
1240 -412 -2 -413 -3 -3 -109 -3 -108 -62 59 c-34 33 -88 76 -118 96 -171 109
-426 157 -674 126z m460 -774 c112 -24 184 -65 264 -151 185 -201 208 -444 63
-665 -89 -135 -198 -212 -337 -238 -245 -45 -476 63 -587 275 -115 219 -80
459 93 634 132 135 310 186 504 145z"/>
<path d="M5365 2545 c-20 -6 -780 -237 -792 -240 -10 -4 -13 -236 -13 -1120
l0 -1115 413 2 412 3 3 1229 c1 677 -1 1233 -5 1237 -5 3 -12 5 -18 4z"/>
</g>
</svg>
